<?xml version="1.0" encoding="UTF-8" standalone="no"?>
<svg
   xmlns:dc="http://purl.org/dc/elements/1.1/"
   xmlns:cc="http://creativecommons.org/ns#"
   xmlns:rdf="http://www.w3.org/1999/02/22-rdf-syntax-ns#"
   xmlns:svg="http://www.w3.org/2000/svg"
   xmlns="http://www.w3.org/2000/svg"
   xmlns:sodipodi="http://sodipodi.sourceforge.net/DTD/sodipodi-0.dtd"
   xmlns:inkscape="http://www.inkscape.org/namespaces/inkscape"
   sodipodi:docname="arrow-right.svg"
   inkscape:version="1.0 (4035a4fb49, 2020-05-01)"
   id="svg8"
   version="1.1"
   viewBox="0 0 132.29166 132.29167"
   height="500"
   width="500">
  <defs
     id="defs2" />
  <sodipodi:namedview
     inkscape:window-maximized="0"
     inkscape:window-y="0"
     inkscape:window-x="352"
     inkscape:window-height="1040"
     inkscape:window-width="1274"
     units="px"
     showgrid="false"
     inkscape:document-rotation="0"
     inkscape:current-layer="g859"
     inkscape:document-units="px"
     inkscape:cy="159.81969"
     inkscape:cx="298.13736"
     inkscape:zoom="1"
     inkscape:pageshadow="2"
     inkscape:pageopacity="0.0"
     borderopacity="1.0"
     bordercolor="#666666"
     pagecolor="#ffffff"
     id="base" />
  <metadata
     id="metadata5">
    <rdf:RDF>
      <cc:Work
         rdf:about="">
        <dc:format>image/svg+xml</dc:format>
        <dc:type
           rdf:resource="http://purl.org/dc/dcmitype/StillImage" />
        <dc:title />
      </cc:Work>
    </rdf:RDF>
  </metadata>
  <g
     id="layer1"
     inkscape:groupmode="layer"
     inkscape:label="Layer 1">
    <g
       id="g859">
      <g
         id="g837"
         style="opacity:1;fill:#808080"
         transform="translate(-2.910807,0.396807)">
        <path
           style="color:#000000;font-style:normal;font-variant:normal;font-weight:normal;font-stretch:normal;font-size:medium;line-height:normal;font-family:sans-serif;font-variant-ligatures:normal;font-variant-position:normal;font-variant-caps:normal;font-variant-numeric:normal;font-variant-alternates:normal;font-variant-east-asian:normal;font-feature-settings:normal;font-variation-settings:normal;text-indent:0;text-align:start;text-decoration:none;text-decoration-line:none;text-decoration-style:solid;text-decoration-color:#000000;letter-spacing:normal;word-spacing:normal;text-transform:none;writing-mode:lr-tb;direction:ltr;text-orientation:mixed;dominant-baseline:auto;baseline-shift:baseline;text-anchor:start;white-space:normal;shape-padding:0;shape-margin:0;inline-size:0;clip-rule:nonzero;display:inline;overflow:visible;visibility:visible;isolation:auto;mix-blend-mode:normal;color-interpolation:sRGB;color-interpolation-filters:linearRGB;solid-color:#000000;solid-opacity:1;vector-effect:none;fill:#808080;fill-opacity:1;fill-rule:nonzero;stroke:none;stroke-width:0.264999;stroke-linecap:butt;stroke-linejoin:miter;stroke-miterlimit:4;stroke-dasharray:0.264999, 3.18000000000000016;stroke-dashoffset:0;stroke-opacity:1;color-rendering:auto;image-rendering:auto;shape-rendering:auto;text-rendering:auto;enable-background:accumulate;stop-color:#000000;stop-opacity:1"
           d="m 16.668749,12.964583 64.822918,31.485416 39.952083,21.56361 -32.279166,14.419721 -72.495835,38.1 39.158333,-52.122914 z"
           id="path839"
           sodipodi:nodetypes="ccccccc" />
        <path
           style="color:#000000;font-style:normal;font-variant:normal;font-weight:normal;font-stretch:normal;font-size:medium;line-height:normal;font-family:sans-serif;font-variant-ligatures:normal;font-variant-position:normal;font-variant-caps:normal;font-variant-numeric:normal;font-variant-alternates:normal;font-variant-east-asian:normal;font-feature-settings:normal;font-variation-settings:normal;text-indent:0;text-align:start;text-decoration:none;text-decoration-line:none;text-decoration-style:solid;text-decoration-color:#000000;letter-spacing:normal;word-spacing:normal;text-transform:none;writing-mode:lr-tb;direction:ltr;text-orientation:mixed;dominant-baseline:auto;baseline-shift:baseline;text-anchor:start;white-space:normal;shape-padding:0;shape-margin:0;inline-size:0;clip-rule:nonzero;display:inline;overflow:visible;visibility:visible;isolation:auto;mix-blend-mode:normal;color-interpolation:sRGB;color-interpolation-filters:linearRGB;solid-color:#000000;solid-opacity:1;vector-effect:none;fill-opacity:1;fill-rule:nonzero;stroke:none;stroke-width:0.264999;stroke-linecap:butt;stroke-linejoin:miter;stroke-miterlimit:4;stroke-dasharray:0.264999, 3.18000000000000016;stroke-dashoffset:0;stroke-opacity:1;color-rendering:auto;image-rendering:auto;shape-rendering:auto;text-rendering:auto;enable-background:accumulate;stop-color:#000000;stop-opacity:1;fill:#808080"
           d="m 16.667969,12.832031 v 0.265625 h -0.13086 v 0.263672 h 0.263672 v -0.263672 h 0.132813 v -0.265625 z m 3.445312,0 v 0.265625 h 0.265625 v -0.265625 z m 3.445313,0 v 0.265625 h 0.265625 v -0.265625 z m 3.445312,0 v 0.265625 h 0.265625 v -0.265625 z m 3.445313,0 v 0.265625 h 0.263672 v -0.265625 z m 3.445312,0 v 0.265625 h 0.263672 v -0.265625 z m 3.44336,0 v 0.265625 h 0.265625 v -0.265625 z m 3.445312,0 v 0.265625 h 0.265625 v -0.265625 z m 3.445313,0 v 0.265625 h 0.265625 v -0.265625 z m 3.445312,0 v 0.265625 h 0.265625 v -0.265625 z m 3.445313,0 v 0.265625 h 0.263671 v -0.265625 z m 3.445312,0 v 0.265625 h 0.263672 v -0.265625 z m 3.443359,0 v 0.265625 h 0.265626 v -0.265625 z m 3.445313,0 v 0.265625 h 0.265625 v -0.265625 z m 3.445313,0 v 0.265625 h 0.265624 v -0.265625 z m 3.445312,0 v 0.265625 h 0.265625 v -0.265625 z m 3.445312,0 v 0.265625 h 0.265626 v -0.265625 z m 3.445313,0 v 0.265625 h 0.263672 v -0.265625 z m 3.445313,0 v 0.265625 h 0.263671 v -0.265625 z m 3.443359,0 v 0.265625 h 0.265625 v -0.265625 z m 3.445312,0 v 0.265625 h 0.265625 v -0.265625 z m 3.445313,0 v 0.265625 h 0.265625 v -0.265625 z m 3.445312,0 v 0.265625 h 0.265625 v -0.265625 z m 3.445313,0 v 0.265625 h 0.263672 v -0.265625 z m 3.445312,0 v 0.265625 h 0.263672 v -0.265625 z m 3.443361,0 v 0.265625 h 0.26562 v -0.265625 z m 3.44531,0 v 0.265625 h 0.26563 v -0.265625 z m 3.44531,0 v 0.265625 h 0.26563 v -0.265625 z m 3.44532,0 v 0.265625 h 0.26562 v -0.265625 z m 3.44531,0 v 0.265625 h 0.26367 v -0.265625 z m 3.44531,0 v 0.265625 h 0.26367 v -0.265625 z m 1.29102,2.152344 V 15.25 h 0.26562 V 14.984375 Z M 16.537109,16.542969 v 0.263672 h 0.263672 v -0.263672 z m 104.773441,1.886719 v 0.265624 h 0.26562 v -0.265624 z m -104.773441,1.55664 v 0.265625 h 0.263672 V 19.986328 Z M 121.31055,21.875 v 0.263672 h 0.26562 V 21.875 Z M 16.537109,23.431641 v 0.265625 h 0.263672 v -0.265625 z m 104.773441,1.888671 v 0.263672 h 0.26562 V 25.320312 Z M 16.537109,26.876953 v 0.265625 h 0.263672 v -0.265625 z m 104.773441,1.886719 v 0.265625 h 0.26562 V 28.763672 Z M 16.537109,30.322266 v 0.265625 h 0.263672 v -0.265625 z m 104.773441,1.886718 v 0.265625 h 0.26562 V 32.208984 Z M 16.537109,33.767578 v 0.263672 h 0.263672 v -0.263672 z m 104.773441,1.886719 v 0.265625 h 0.26562 V 35.654297 Z M 16.537109,37.212891 v 0.263671 h 0.263672 v -0.263671 z m 104.773441,1.886718 v 0.265625 h 0.26562 V 39.099609 Z M 16.537109,40.65625 v 0.265625 h 0.263672 V 40.65625 Z m 104.773441,1.888672 v 0.263672 h 0.26562 v -0.263672 z m -104.773441,1.55664 v 0.265626 h 0.263672 v -0.265626 z m 104.773441,1.888672 v 0.263672 h 0.26562 V 45.990234 Z M 16.537109,47.546875 V 47.8125 h 0.263672 v -0.265625 z m 104.773441,1.886719 v 0.265625 h 0.26562 V 49.433594 Z M 16.537109,50.992188 v 0.265624 h 0.263672 v -0.265624 z m 104.773441,1.886718 v 0.265625 h 0.26562 V 52.878906 Z M 16.537109,54.4375 v 0.265625 h 0.263672 V 54.4375 Z m 104.773441,1.886719 v 0.265625 h 0.26562 V 56.324219 Z M 16.537109,57.882812 v 0.263672 h 0.263672 v -0.263672 z m 104.773441,1.886719 v 0.265625 h 0.26562 V 59.769531 Z M 16.537109,61.328125 v 0.263672 h 0.263672 v -0.263672 z m 104.773441,1.886719 v 0.265625 h 0.26562 v -0.265625 z m -104.773441,1.55664 v 0.265625 h 0.263672 v -0.265625 z m 104.773441,1.888672 v 0.263672 h 0.26562 V 66.660156 Z M 16.537109,68.216797 v 0.265625 h 0.263672 v -0.265625 z m 104.773441,1.888672 v 0.263672 h 0.26562 v -0.263672 z m -104.773441,1.55664 v 0.265625 h 0.263672 v -0.265625 z m 104.773441,1.886719 v 0.265625 h 0.26562 V 73.548828 Z M 16.537109,75.107422 v 0.265625 h 0.263672 v -0.265625 z m 104.773441,1.886719 v 0.265625 h 0.26562 V 76.994141 Z M 16.537109,78.552734 v 0.263672 h 0.263672 v -0.263672 z m 104.773441,1.886719 v 0.265625 h 0.26562 V 80.439453 Z M 16.537109,81.998047 v 0.263672 h 0.263672 v -0.263672 z m 104.773441,1.886719 v 0.265625 h 0.26562 v -0.265625 z m -104.773441,1.55664 v 0.265625 h 0.263672 v -0.265625 z m 104.773441,1.888672 v 0.263672 h 0.26562 V 87.330078 Z M 16.537109,88.886719 v 0.265625 h 0.263672 v -0.265625 z m 104.773441,1.888672 v 0.263671 h 0.26562 v -0.263671 z m -104.773441,1.55664 v 0.265625 h 0.263672 V 92.332031 Z M 121.31055,94.21875 v 0.265625 h 0.26562 V 94.21875 Z M 16.537109,95.777344 v 0.265625 h 0.263672 v -0.265625 z m 104.773441,1.886718 v 0.265626 h 0.26562 V 97.664062 Z M 16.537109,99.222656 v 0.263672 h 0.263672 v -0.263672 z m 104.773441,1.886724 v 0.26562 h 0.26562 v -0.26562 z m -104.773441,1.55859 v 0.26367 h 0.263672 v -0.26367 z m 104.773441,1.88672 v 0.26562 h 0.26562 v -0.26562 z m -104.773441,1.55664 v 0.26562 h 0.263672 v -0.26562 z M 121.31055,108 v 0.26367 h 0.26562 V 108 Z m -104.773441,1.55664 v 0.26563 h 0.263672 v -0.26563 z m 104.773441,1.88867 v 0.26367 h 0.26562 v -0.26367 z m -104.773441,1.55664 v 0.26563 h 0.263672 v -0.26563 z m 104.773441,1.88672 v 0.26563 h 0.26562 v -0.26563 z m -104.773441,1.5586 v 0.26562 h 0.263672 v -0.26562 z m 104.773441,1.88671 v 0.19922 l 0.0664,-0.0664 v 0.19922 h 0.19922 v -0.33204 z m -103.283206,0.0664 v 0.26563 h 0.265625 v -0.26563 z m 3.445312,0 v 0.26563 h 0.265625 v -0.26563 z m 3.445313,0 v 0.26563 h 0.263672 v -0.26563 z m 3.445312,0 v 0.26563 h 0.263672 v -0.26563 z m 3.44336,0 v 0.26563 h 0.265625 v -0.26563 z m 3.445312,0 v 0.26563 h 0.265625 v -0.26563 z m 3.445313,0 v 0.26563 h 0.265625 v -0.26563 z m 3.445312,0 v 0.26563 h 0.265625 v -0.26563 z m 3.445313,0 v 0.26563 h 0.265625 v -0.26563 z m 3.445312,0 v 0.26563 h 0.263672 v -0.26563 z m 3.445313,0 v 0.26563 h 0.263672 v -0.26563 z m 3.443359,0 v 0.26563 H 56.1875 v -0.26563 z m 3.445313,0 v 0.26563 h 0.265624 v -0.26563 z m 3.445312,0 v 0.26563 h 0.265625 v -0.26563 z m 3.445312,0 v 0.26563 h 0.265626 v -0.26563 z m 3.445313,0 v 0.26563 h 0.263672 v -0.26563 z m 3.445313,0 v 0.26563 h 0.263671 v -0.26563 z m 3.443359,0 v 0.26563 h 0.265625 v -0.26563 z m 3.445312,0 v 0.26563 h 0.265625 v -0.26563 z m 3.445313,0 v 0.26563 h 0.265625 v -0.26563 z m 3.445312,0 v 0.26563 h 0.265625 v -0.26563 z m 3.445313,0 v 0.26563 h 0.263672 v -0.26563 z m 3.445312,0 v 0.26563 h 0.263672 v -0.26563 z m 3.44336,0 v 0.26563 h 0.265625 v -0.26563 z m 3.445311,0 v 0.26563 h 0.26563 v -0.26563 z m 3.44531,0 v 0.26563 h 0.26563 v -0.26563 z m 3.44532,0 v 0.26563 h 0.26562 v -0.26563 z m 3.44531,0 v 0.26563 h 0.26367 v -0.26563 z m 3.44531,0 v 0.26563 h 0.26367 v -0.26563 z m 3.44336,0 v 0.26563 h 0.26563 v -0.26563 z"
           id="path841" />
      </g>
    </g>
  </g>
</svg>
