<?xml version="1.0" encoding="UTF-8" standalone="no"?>
<svg
   xmlns:dc="http://purl.org/dc/elements/1.1/"
   xmlns:cc="http://creativecommons.org/ns#"
   xmlns:rdf="http://www.w3.org/1999/02/22-rdf-syntax-ns#"
   xmlns:svg="http://www.w3.org/2000/svg"
   xmlns="http://www.w3.org/2000/svg"
   xmlns:sodipodi="http://sodipodi.sourceforge.net/DTD/sodipodi-0.dtd"
   xmlns:inkscape="http://www.inkscape.org/namespaces/inkscape"
   sodipodi:docname="eating.svg"
   inkscape:version="1.0 (4035a4fb49, 2020-05-01)"
   id="svg8"
   version="1.1"
   viewBox="0 0 132.29166 132.29167"
   height="500"
   width="500">
  <defs
     id="defs2" />
  <sodipodi:namedview
     inkscape:window-maximized="0"
     inkscape:window-y="93"
     inkscape:window-x="276"
     inkscape:window-height="1040"
     inkscape:window-width="1274"
     units="px"
     showgrid="false"
     inkscape:document-rotation="0"
     inkscape:current-layer="layer1"
     inkscape:document-units="px"
     inkscape:cy="313.38343"
     inkscape:cx="239.5654"
     inkscape:zoom="0.98994949"
     inkscape:pageshadow="2"
     inkscape:pageopacity="0.0"
     borderopacity="1.0"
     bordercolor="#666666"
     pagecolor="#ffffff"
     id="base" />
  <metadata
     id="metadata5">
    <rdf:RDF>
      <cc:Work
         rdf:about="">
        <dc:format>image/svg+xml</dc:format>
        <dc:type
           rdf:resource="http://purl.org/dc/dcmitype/StillImage" />
        <dc:title></dc:title>
      </cc:Work>
    </rdf:RDF>
  </metadata>
  <g
     id="layer1"
     inkscape:groupmode="layer"
     inkscape:label="Layer 1">
    <path
       id="path845"
       d="m 61.982227,125.56678 c -11.635136,-0.81926 -23.666263,-5.50673 -32.88442,-12.81216 -2.407591,-1.90803 -7.137651,-6.58966 -9.114202,-9.0209 C 10.344875,91.877736 5.46384,76.058915 6.845155,61.153653 7.908385,49.680723 11.898647,39.286859 18.751321,30.140388 20.828381,27.368073 25.774516,22.25513 28.594569,19.965178 33.280523,16.160067 40.158521,12.24948 45.778559,10.194966 53.611313,7.3315489 63.059581,6.0785333 71.172558,6.8272497 79.08545,7.5575 85.294675,9.3087618 92.577889,12.864445 c 6.035062,2.946338 10.979671,6.502722 15.755081,11.331774 4.69215,4.744854 7.99344,9.29054 10.87144,14.969366 9.33359,18.416902 8.52757,40.352703 -2.12422,57.81089 -4.83828,7.929885 -12.16173,15.253695 -20.091219,20.092205 -7.665498,4.67742 -16.477742,7.54999 -25.816413,8.41552 -2.366168,0.21931 -6.695987,0.25821 -9.190331,0.0826 z m 12.19,-4.14281 c 5.122067,-0.81492 9.509996,-2.06326 14.101331,-4.01175 C 100.9614,112.02773 111.47077,101.64739 117.15833,88.882105 126.56441,67.770871 121.97865,43.081939 105.61102,26.713512 86.940908,8.0424874 57.706753,4.9676327 35.760887,19.36666 c -3.731156,2.448069 -5.996153,4.28447 -9.044919,7.333385 -5.4401,5.440366 -9.462133,11.513457 -12.286168,18.55157 -8.259415,20.584264 -3.808878,43.539523 11.580781,59.732075 3.170507,3.33592 8.575349,7.46954 13.053985,9.98369 6.245444,3.50596 14.042289,5.96391 21.521661,6.78467 2.784676,0.30558 10.823322,0.11146 13.586,-0.32808 z M 51.743391,110.61301 c -1.672989,-0.50893 -2.985827,-1.63843 -3.592484,-3.09079 -0.230626,-0.55213 -0.361343,-1.58152 -0.361343,-2.84558 v -1.98051 l -0.988833,-0.49924 c -2.458002,-1.24104 -7.223661,-4.683973 -8.721564,-6.30087 l -0.520066,-0.561382 1.262179,-1.246559 1.262178,-1.246559 1.700887,1.450064 c 0.935488,0.797531 2.639585,2.080857 3.786882,2.85183 1.854379,1.246128 2.10383,1.353962 2.246613,0.971224 0.08834,-0.236791 0.435824,-9.958705 0.772188,-21.604241 0.336361,-11.64553 0.674251,-22.136722 0.750866,-23.313755 l 0.139298,-2.140063 -0.670813,-0.161835 C 46.433907,50.32166 44.178178,48.419393 42.96693,45.967774 l -0.877698,-1.776499 v -3.184428 -3.184431 l -0.905413,0.717205 c -1.310255,1.037895 -4.391682,4.625824 -5.869546,6.834343 -5.817725,8.694009 -7.732023,19.336987 -5.316495,29.558283 1.021372,4.321927 2.764757,8.252823 5.354029,12.071999 0.837132,1.234765 1.491465,2.263235 1.454076,2.285475 -0.03739,0.02225 -0.628482,0.49919 -1.313536,1.059886 -0.988137,0.80877 -1.324731,0.969562 -1.628666,0.777999 C 33.228406,90.727227 30.713326,86.789089 29.4252,84.177795 20.957181,67.011384 25.705525,46.095521 40.808756,34.034636 l 2.010072,-1.605169 0.50662,-4.580691 c 0.278642,-2.519379 0.535245,-4.609315 0.570228,-4.644301 0.0731,-0.07309 3.471063,0.336637 3.564206,0.429785 0.03386,0.03386 -0.347601,3.673134 -0.847679,8.087287 -0.500075,4.414152 -0.910896,8.104262 -0.912934,8.200242 -0.002,0.09597 1.252695,0.174507 2.788295,0.174507 h 2.791999 V 31.71989 23.343483 h 1.861333 1.861333 v 8.376407 8.376406 h 2.81245 2.812451 l -0.133738,-0.872541 c -0.07356,-0.479899 -0.45058,-3.804286 -0.837831,-7.387526 -0.38725,-3.583241 -0.762988,-6.900025 -0.834975,-7.370631 l -0.130884,-0.855645 1.122763,-0.14347 c 0.61752,-0.07891 1.452823,-0.194044 1.856233,-0.255859 0.72024,-0.110362 0.736229,-0.09234 0.886603,0.999117 l 0.153135,1.111504 3.766728,0.0019 c 2.0717,0.0011 4.107003,0.07695 4.522895,0.168691 l 0.756166,0.166785 v -1.517168 c 0,-2.501771 0.937509,-3.040817 4.214409,-2.423189 3.480754,0.65605 6.617839,3.07636 8.236712,6.354754 0.75078,1.520402 1.055218,1.900143 1.843898,2.300003 1.689613,0.856631 5.560045,3.61087 7.186546,5.114021 l 1.588564,1.468093 -1.285252,1.259455 -1.285261,1.259459 -1.554286,-1.326909 c -1.857546,-1.58579 -4.501407,-3.498599 -4.641746,-3.358253 -0.05514,0.05518 0.914088,5.193205 2.153929,11.417832 2.203552,11.062933 2.248312,11.352233 1.989777,12.861591 -0.345126,2.014943 -1.196603,3.716575 -2.543261,5.082602 -1.208641,1.226014 -2.161588,1.772985 -4.736031,2.718359 l -1.745,0.640793 0.06196,1.35901 c 0.14279,3.132099 1.450128,26.654057 1.585517,28.526987 l 0.147372,2.038752 1.31291,-0.739824 c 9.757673,-5.498406 16.490858,-14.979729 18.563458,-26.14012 0.64137,-3.453596 0.59609,-9.813767 -0.0944,-13.263276 -0.59166,-2.955608 -1.71204,-6.41613 -2.930869,-9.052523 -0.46789,-1.012075 -0.82368,-1.859743 -0.79064,-1.883712 0.0331,-0.02396 0.757,-0.40891 1.608799,-0.855426 l 1.54873,-0.811849 1.05258,2.230205 c 1.39921,2.964627 2.08258,4.963305 2.79441,8.172757 1.4195,6.400119 1.41983,11.708414 8.8e-4,18.139613 -1.09451,4.961665 -3.48264,10.314853 -6.539479,14.658717 -3.36264,4.778439 -9.37203,10.001624 -14.4243,12.537185 l -1.919496,0.96333 v 1.63389 c 0,2.7568 -1.320447,4.63539 -3.868462,5.50363 -2.702526,0.92089 -5.971698,-0.54308 -7.055393,-3.15948 -0.251168,-0.60639 -0.414679,-0.73425 -0.803253,-0.62805 -1.814701,0.49592 -9.270501,0.35482 -12.153457,-0.23002 -0.68168,-0.13829 -0.749067,-0.0911 -1.013463,0.71009 -0.82027,2.48556 -4.021712,4.15227 -6.517471,3.39305 z m 2.377192,-3.82267 c 0.218909,-0.16632 0.48756,-0.55564 0.597001,-0.86513 0.172321,-0.48733 -1.398909,-53.5953 -1.575855,-53.264303 -0.191824,0.358832 -1.743369,52.788593 -1.576239,53.264303 0.256405,0.72983 0.847039,1.16755 1.575406,1.16755 0.319917,0 0.760776,-0.13608 0.979687,-0.30242 z m 24.698596,-0.16503 c 0.549978,-0.43263 0.613044,-0.63787 0.613044,-1.99506 0,-0.83205 -0.476978,-9.943282 -1.059952,-20.247174 -0.955599,-16.889897 -1.025234,-18.787338 -0.707292,-19.272601 0.256049,-0.390797 1.136027,-0.800094 3.21212,-1.494019 3.135927,-1.048169 4.077286,-1.644707 4.952655,-3.138479 1.089768,-1.859639 1.07823,-1.966638 -1.733088,-16.077919 -1.427657,-7.166051 -2.755915,-13.527741 -2.951683,-14.13709 -0.461627,-1.43687 -2.299119,-3.448785 -3.860386,-4.226835 -0.66059,-0.329202 -1.337564,-0.598548 -1.504387,-0.598548 -0.248145,0 -0.303319,7.324064 -0.303319,40.263864 v 40.263871 l 0.571092,0.57112 c 0.719828,0.71986 1.920125,0.75836 2.771196,0.0889 z m -7.47212,-3.59269 c 0.385368,-0.15432 0.407166,-2.12854 0.407166,-36.876391 0,-34.747844 -0.0218,-36.72206 -0.407166,-36.876381 -0.223942,-0.08967 -2.160892,-0.220922 -4.304333,-0.291655 -3.717305,-0.12267 -3.896984,-0.10824 -3.893217,0.312664 0.0021,0.242698 0.262145,2.69243 0.577718,5.443847 0.855357,7.457701 0.753055,9.159116 -0.712632,11.852199 -1.060976,1.949462 -3.422701,3.787123 -5.514604,4.290921 l -0.643237,0.154913 0.131324,2.845016 c 0.123779,2.68152 1.50415,46.872097 1.50415,48.153127 0,0.57504 0.07686,0.60806 2.035833,0.87469 1.119708,0.15241 2.192883,0.31555 2.384833,0.36252 0.588146,0.14398 8.000381,-0.0717 8.434165,-0.24547 z M 56.935714,47.172034 c 1.110162,-0.378288 3.185181,-2.351586 3.185181,-3.029036 0,-0.269488 -1.171725,-0.323854 -6.979999,-0.323854 -6.178592,0 -6.979999,0.04181 -6.979999,0.364193 0,0.565872 2.348309,2.767928 3.257333,3.054461 1.309125,0.41265 6.240077,0.369514 7.517484,-0.06576 z m 38.682037,-3.760077 -1.069502,-1.337898 1.225152,-1.097814 c 0.67384,-0.603798 1.3545,-1.101147 1.51258,-1.105221 0.26511,-0.0069 2.38776,2.490114 2.38809,2.809187 1.6e-4,0.147889 -2.66305,2.069645 -2.86815,2.069645 -0.0653,0 -0.59995,-0.602054 -1.18817,-1.337899 z"
       style="fill:#62b5e5;fill-opacity:1;stroke-width:0.232672" />
  </g>
</svg>
