<?xml version="1.0" encoding="UTF-8" standalone="no"?>
<svg
   xmlns:dc="http://purl.org/dc/elements/1.1/"
   xmlns:cc="http://creativecommons.org/ns#"
   xmlns:rdf="http://www.w3.org/1999/02/22-rdf-syntax-ns#"
   xmlns:svg="http://www.w3.org/2000/svg"
   xmlns="http://www.w3.org/2000/svg"
   xmlns:xlink="http://www.w3.org/1999/xlink"
   xmlns:sodipodi="http://sodipodi.sourceforge.net/DTD/sodipodi-0.dtd"
   xmlns:inkscape="http://www.inkscape.org/namespaces/inkscape"
   sodipodi:docname="SimpleLog.svg"
   inkscape:version="1.0 (4035a4fb49, 2020-05-01)"
   id="svg8"
   version="1.1"
   viewBox="0 0 135.46671 49.477301"
   height="187"
   width="512">
  <defs
     id="defs2">
    <linearGradient
       inkscape:collect="always"
       id="linearGradient894">
      <stop
         style="stop-color:#0079ff;stop-opacity:0.562249"
         offset="0"
         id="stop898" />
      <stop
         style="stop-color:#0000ff;stop-opacity:1"
         offset="1"
         id="stop900" />
    </linearGradient>
    <linearGradient
       inkscape:collect="always"
       id="linearGradient884">
      <stop
         style="stop-color:#800000;stop-opacity:1;"
         offset="0"
         id="stop880" />
      <stop
         style="stop-color:#d40000;stop-opacity:1"
         offset="1"
         id="stop882" />
    </linearGradient>
    <linearGradient
       id="linearGradient874"
       inkscape:collect="always">
      <stop
         id="stop870"
         offset="0"
         style="stop-color:#800000;stop-opacity:1;" />
      <stop
         id="stop872"
         offset="1"
         style="stop-color:#ff0000;stop-opacity:1" />
    </linearGradient>
    <rect
       id="rect12"
       height="74.568199"
       width="111.18412"
       y="31.270535"
       x="16.83798" />
    <linearGradient
       gradientUnits="userSpaceOnUse"
       y2="59.374832"
       x2="97.874992"
       y1="59.53162"
       x1="18.028517"
       id="linearGradient876"
       xlink:href="#linearGradient884"
       inkscape:collect="always" />
    <linearGradient
       gradientTransform="matrix(1.1334743,0,0,1.1334743,0.00592089,-37.093052)"
       gradientUnits="userSpaceOnUse"
       y2="55"
       x2="117.75965"
       y1="55"
       x1="40.959652"
       id="linearGradient878"
       xlink:href="#linearGradient874"
       inkscape:collect="always" />
    <radialGradient
       gradientUnits="userSpaceOnUse"
       gradientTransform="matrix(1.1864043,-0.00218231,0.00154558,0.84024584,-4.2350001,-12.595824)"
       r="26.318707"
       fy="43.954239"
       fx="26.565018"
       cy="43.954239"
       cx="26.565018"
       id="radialGradient903"
       xlink:href="#linearGradient894"
       inkscape:collect="always" />
  </defs>
  <sodipodi:namedview
     inkscape:window-maximized="1"
     inkscape:window-y="-8"
     inkscape:window-x="-8"
     inkscape:window-height="1017"
     inkscape:window-width="1920"
     units="px"
     showgrid="false"
     inkscape:document-rotation="0"
     inkscape:current-layer="svg8"
     inkscape:document-units="mm"
     inkscape:cy="122.15591"
     inkscape:cx="423.73244"
     inkscape:zoom="0.7"
     inkscape:pageshadow="2"
     inkscape:pageopacity="0.0"
     borderopacity="1.0"
     bordercolor="#666666"
     pagecolor="#ffffff"
     id="base" />
  <metadata
     id="metadata5">
    <rdf:RDF>
      <cc:Work
         rdf:about="">
        <dc:format>image/svg+xml</dc:format>
        <dc:type
           rdf:resource="http://purl.org/dc/dcmitype/StillImage" />
        <dc:title></dc:title>
      </cc:Work>
    </rdf:RDF>
  </metadata>
  <g
     style="display:inline"
     id="layer1"
     inkscape:groupmode="layer"
     inkscape:label="Layer 1">
    <text
       transform="matrix(0.96608821,0,0,0.96608821,-7.294692,-32.26476)"
       style="font-size:10.5833px;line-height:1.25;font-family:'Calisto MT';-inkscape-font-specification:'Calisto MT';white-space:pre;shape-inside:url(#rect12);fill:url(#linearGradient876);fill-opacity:1;"
       id="text10"
       xml:space="preserve"><tspan
         x="16.837891"
         y="76.857693"><tspan
           style="font-size:50.8px;fill:url(#linearGradient876);fill-opacity:1">D</tspan></tspan></text>
    <text
       id="text18"
       y="41.320694"
       x="46.02459"
       style="font-size:9.67232px;line-height:1.25;font-family:'Calisto MT';-inkscape-font-specification:'Calisto MT';fill:url(#linearGradient878);fill-opacity:1;stroke-width:0.241807"
       xml:space="preserve"><tspan
         style="font-size:46.4271px;fill:url(#linearGradient878);fill-opacity:1;stroke-width:0.241807"
         y="41.320694"
         x="46.02459"
         id="tspan16"
         sodipodi:role="line">Web</tspan></text>
  </g>
  <path
     id="path37"
     d="m 16.0914,48.187467 c -3.18859,-1.025974 -4.507765,-5.083317 -3.677309,-11.31012 0.155903,-1.168956 0.29699,-2.341516 0.313523,-2.605679 0.02408,-0.383959 -0.468479,-0.674711 -2.455276,-1.449454 -4.0914328,-1.595422 -6.8841692,-3.730961 -7.9511145,-6.080035 -0.6300052,-1.387084 -0.5899058,-2.3192 0.1649477,-3.834003 1.1563489,-2.320485 3.6251717,-4.128729 8.0002208,-5.859622 2.525756,-0.99926 2.39943,-0.77074 1.929624,-3.490739 -0.912645,-5.2838608 0.218687,-9.9927681 2.720527,-11.3235765 2.566765,-1.36534307 7.082786,0.06629 11.312336,3.5861649 0.803731,0.6688757 1.578578,1.2161354 1.721883,1.2161354 0.143296,0 0.966536,-0.5727267 1.829421,-1.2727271 2.123407,-1.7225811 4.534913,-3.1075805 6.579392,-3.7787349 1.509451,-0.4955147 1.850181,-0.5252057 3.076207,-0.268043 0.758303,0.159056 1.745165,0.5686767 2.193008,0.9102674 2.013792,1.5359934 2.825506,5.632906 2.099925,10.5988428 -0.444468,3.041988 -0.525624,2.813391 1.235686,3.480443 2.525992,0.956658 5.345232,2.522524 6.741058,3.744128 1.419328,1.242166 2.593481,3.288225 2.593481,4.519336 0,1.205906 -1.162863,3.257542 -2.556642,4.510666 -1.2748,1.146159 -5.3726,3.366306 -7.253325,3.929782 l -1.018391,0.305125 0.139608,1.145219 c 0.07678,0.629863 0.214052,2.513556 0.305039,4.185975 0.304234,5.59198 -0.94551,8.310203 -4.196391,9.127272 -2.222613,0.558632 -5.562254,-0.739704 -9.363888,-3.640346 -1.1751,-0.896595 -2.250123,-1.630176 -2.388926,-1.630176 -0.138811,0 -0.675963,0.380555 -1.19368,0.845688 -1.434618,1.288924 -4.68729,3.329166 -6.224375,3.904263 -1.611377,0.602894 -3.715617,0.843139 -4.676569,0.533948 z m 4.04025,-2.871303 c 2.311087,-0.939083 6.044809,-3.69168 6.044809,-4.456392 0,-0.207321 -0.291587,-0.650576 -0.647968,-0.985013 -0.356382,-0.334436 -1.271027,-1.421194 -2.032525,-2.415022 -1.294622,-1.689587 -1.460261,-1.816918 -2.549968,-1.960308 -0.640973,-0.08437 -1.995771,-0.31524 -3.010663,-0.513111 -2.808443,-0.54755 -2.703227,-0.590342 -3.019955,1.228395 -0.152112,0.873493 -0.276563,2.65928 -0.276563,3.968423 0,5.172645 1.635039,6.70059 5.492833,5.133028 z m 20.153113,0.100282 c 1.413346,-1.111737 1.951237,-4.389617 1.351737,-8.237504 -0.200393,-1.286221 -0.429745,-2.40398 -0.509679,-2.483913 -0.07992,-0.07992 -1.536127,0.0977 -3.235979,0.394736 -1.699852,0.29704 -3.163013,0.540071 -3.251478,0.540071 -0.294071,0 -4.453728,5.129882 -4.369663,5.38887 0.134651,0.414767 2.9461,2.597071 4.434589,3.442199 2.592627,1.472045 4.5071,1.799855 5.580473,0.955541 z M 29.66679,37.699078 c 0.561638,-0.655259 1.021898,-1.332474 1.02278,-1.50491 9.47e-4,-0.230027 -0.66636,-0.313525 -2.50656,-0.313525 -1.379502,0 -2.508181,0.09767 -2.508181,0.217058 0,0.458536 2.117131,2.792764 2.533018,2.792764 0.240777,0 0.897296,-0.536119 1.458943,-1.191387 z m 3.469304,-4.62899 c 0.472119,-0.391827 3.467976,-5.426597 4.083638,-6.862885 l 0.526041,-1.22721 -0.564272,-1.259066 c -0.687974,-1.535061 -3.658586,-6.52988 -4.102864,-6.8986 -0.351614,-0.291817 -8.746472,-0.397459 -9.471616,-0.119195 -0.533539,0.204737 -2.357926,3.040531 -3.894792,6.053976 l -1.175139,2.304184 1.105946,2.086334 c 0.608268,1.147482 1.69987,3.011372 2.425773,4.141976 l 1.319828,2.055645 1.331202,0.109164 c 2.160075,0.177129 8.064631,-0.09251 8.416255,-0.384317 z m -7.180018,-3.753095 c -1.627863,-0.805771 -2.538611,-2.367459 -2.538611,-4.353049 0,-1.295264 0.120894,-1.72073 0.765432,-2.693804 1.42401,-2.149865 3.803796,-2.739751 6.211872,-1.539756 1.720072,0.857148 2.625454,2.319188 2.625454,4.239664 0,1.920477 -0.905382,3.382517 -2.625454,4.239665 -1.604051,0.799334 -2.973684,0.832438 -4.438693,0.107284 z m -6.0656,3.240307 c -0.02105,-0.425632 -2.367179,-4.075795 -2.619681,-4.075795 -0.283198,0 -1.157251,2.654713 -1.072066,3.256148 0.05431,0.383397 0.386036,0.563466 1.449909,0.787008 1.874347,0.393854 2.260002,0.399467 2.241838,0.03261 z m 18.848111,-0.07071 c 1.858373,-0.261736 1.895571,-0.331601 1.208357,-2.269613 -0.331384,-0.934541 -0.72233,-1.737873 -0.868763,-1.785185 -0.299313,-0.0967 -2.616781,3.951906 -2.439103,4.261086 0.06266,0.109074 0.301998,0.143723 0.531797,0.07698 0.229808,-0.06673 0.935271,-0.194202 1.567712,-0.283273 z M 14.673513,28.089905 c 0.950556,-2.540378 1.117929,-3.224865 0.914939,-3.741582 -0.136632,-0.347827 -0.63921,-1.704659 -1.116819,-3.015185 -0.477617,-1.310528 -0.953607,-2.469614 -1.05775,-2.575747 -0.236445,-0.24095 -1.581717,0.227838 -4.1459151,1.44473 -1.3125859,0.62291 -2.4806244,1.424093 -3.4487633,2.365574 -1.2913515,1.255802 -1.463949,1.53903 -1.463949,2.402309 0,0.86328 0.1725975,1.146509 1.463949,2.402308 0.967172,0.940539 2.1374854,1.743569 3.4487633,2.366405 2.3609241,1.121407 3.6488051,1.61351 3.9913471,1.525102 0.137949,-0.03564 0.774345,-1.463872 1.414198,-3.173914 z m 30.2459,2.638251 c 2.797692,-1.05027 5.636649,-2.915044 6.658141,-4.373419 1.097649,-1.567123 -0.145555,-3.651099 -3.290384,-5.515632 -1.831175,-1.08568 -4.964583,-2.350491 -5.30375,-2.140872 -0.118023,0.07294 -0.406122,0.723851 -0.640214,1.446468 -0.234092,0.722616 -0.757756,2.123961 -1.163696,3.114105 -0.717921,1.751101 -0.726576,1.822496 -0.316936,2.614654 0.231627,0.447918 0.755327,1.778883 1.16378,2.957699 0.760418,2.194624 0.906596,2.53471 1.089423,2.53471 0.05764,0 0.869321,-0.286971 1.803636,-0.637713 z M 18.651909,19.644047 c 1.658434,-2.841441 1.676863,-2.764845 -0.551996,-2.293984 -2.149978,0.454199 -2.239771,0.541155 -1.848988,1.790531 0.517491,1.654484 0.866108,2.443689 1.07798,2.440334 0.106876,-0.0018 0.702232,-0.873289 1.323004,-1.936881 z m 21.230506,0.189523 c 0.486812,-1.294941 0.541587,-1.663395 0.28352,-1.907206 -0.375957,-0.35518 -3.255555,-0.888553 -3.491477,-0.64671 -0.212783,0.218112 2.10328,4.324104 2.386461,4.230801 0.119966,-0.03954 0.489647,-0.794127 0.821496,-1.676885 z M 17.874427,14.951469 c 1.048394,-0.199143 2.418133,-0.428173 3.043872,-0.508955 1.054698,-0.136163 1.24233,-0.280466 2.572111,-1.978129 0.788925,-1.007189 1.716034,-2.095819 2.060235,-2.419178 0.3442,-0.3233607 0.625814,-0.7754604 0.625814,-1.0046664 0,-0.5404907 -3.454685,-3.1291632 -5.398347,-4.0450966 -3.905448,-1.8404111 -5.614932,-0.9994334 -6.118362,3.0099192 -0.199208,1.5865241 -0.02066,4.8440648 0.360703,6.5803508 0.185236,0.843364 0.277397,0.855176 2.853974,0.365755 z M 41.489184,13.49511 c 0.169916,-1.000137 0.307513,-2.721378 0.30576,-3.8249797 -0.0085,-5.166969 -1.885825,-6.7407481 -5.821087,-4.8790733 -1.759157,0.8322157 -4.31122,2.5729665 -5.244093,3.5769752 -0.700696,0.7541344 -0.76111,0.6325074 1.79593,3.6157508 l 1.959909,2.286584 1.802365,0.295921 c 0.991298,0.162756 2.197406,0.386134 2.680229,0.496393 2.118128,0.483704 2.178911,0.44591 2.520987,-1.567571 z M 30.69119,13.790928 c 0,-0.46301 -2.065162,-2.741302 -2.484736,-2.741174 -0.421593,1.3e-4 -2.531625,2.286111 -2.531625,2.742724 0,0.170954 0.902084,0.266974 2.508181,0.266974 1.615169,0 2.50818,-0.09559 2.50818,-0.268524 z"
     style="display:inline;fill:url(#radialGradient903);fill-opacity:1;stroke-width:0.250817" />
</svg>
