<?xml version="1.0" encoding="UTF-8" standalone="no"?>
<svg
   xmlns:dc="http://purl.org/dc/elements/1.1/"
   xmlns:cc="http://creativecommons.org/ns#"
   xmlns:rdf="http://www.w3.org/1999/02/22-rdf-syntax-ns#"
   xmlns:svg="http://www.w3.org/2000/svg"
   xmlns="http://www.w3.org/2000/svg"
   xmlns:sodipodi="http://sodipodi.sourceforge.net/DTD/sodipodi-0.dtd"
   xmlns:inkscape="http://www.inkscape.org/namespaces/inkscape"
   width="500"
   height="500"
   viewBox="0 0 132.29166 132.29167"
   version="1.1"
   id="svg8"
   inkscape:version="1.0 (4035a4fb49, 2020-05-01)"
   sodipodi:docname="sliping.svg">
  <defs
     id="defs2" />
  <sodipodi:namedview
     id="base"
     pagecolor="#ffffff"
     bordercolor="#666666"
     borderopacity="1.0"
     inkscape:pageopacity="0.0"
     inkscape:pageshadow="2"
     inkscape:zoom="0.98994949"
     inkscape:cx="239.5654"
     inkscape:cy="313.38343"
     inkscape:document-units="px"
     inkscape:current-layer="layer1"
     inkscape:document-rotation="0"
     showgrid="false"
     units="px"
     inkscape:window-width="1274"
     inkscape:window-height="1040"
     inkscape:window-x="352"
     inkscape:window-y="0"
     inkscape:window-maximized="0" />
  <metadata
     id="metadata5">
    <rdf:RDF>
      <cc:Work
         rdf:about="">
        <dc:format>image/svg+xml</dc:format>
        <dc:type
           rdf:resource="http://purl.org/dc/dcmitype/StillImage" />
        <dc:title></dc:title>
      </cc:Work>
    </rdf:RDF>
  </metadata>
  <g
     inkscape:label="Layer 1"
     inkscape:groupmode="layer"
     id="layer1">
    <path
       id="path847"
       d="M 123.20069,108.82733 C 111.73126,106.3359 99.533764,110.80664 87.292942,108.02241 52.886138,100.19569 30.374705,70.762682 37.097132,40.685513 39.815347,28.524309 55.822153,17.748108 56.337987,6.6145838 -10.271377,16.476847 -7.1344041,101.32323 48.908798,120.95978 c 20.39684,7.14636 62.650352,8.3527 74.291892,-12.13245 M 81.101952,10.873455 v 2.129426 h 13.62018 L 81.101952,31.103068 H 100.91312 V 28.973622 H 84.816542 L 100.91312,10.873455 H 81.101952 m -33.43135,2.129426 C 40.416741,24.206786 33.314313,33.922852 31.785138,47.07381 27.020056,88.053656 69.188008,113.0862 112.0569,113.0862 v 1.06473 C 84.332412,124.06343 55.772255,125.69244 31.592227,107.44322 -2.6350392,81.611057 5.2994588,28.726823 47.670602,13.002881 m 8.667385,29.812057 v 2.129426 l 18.572972,1.064723 c -7.420521,6.380852 -18.155327,13.40478 -21.049367,22.359038 l 27.24036,1.064726 V 68.368125 L 60.052582,66.2387 83.578352,44.944364 56.337987,42.814938 m 38.384145,27.682614 v 2.129444 l 1.2382,1.0647 16.096568,-3.194144 -11.14378,27.682638 24.76396,-4.258875 V 90.727162 L 105.86591,93.921315 119.48609,66.2387 Z"
       style="fill:#62b5e5;stroke:none;stroke-width:1.14819;fill-opacity:1" />
  </g>
</svg>
