<?xml version="1.0" encoding="UTF-8" standalone="no"?>
<svg
   xmlns:dc="http://purl.org/dc/elements/1.1/"
   xmlns:cc="http://creativecommons.org/ns#"
   xmlns:rdf="http://www.w3.org/1999/02/22-rdf-syntax-ns#"
   xmlns:svg="http://www.w3.org/2000/svg"
   xmlns="http://www.w3.org/2000/svg"
   xmlns:sodipodi="http://sodipodi.sourceforge.net/DTD/sodipodi-0.dtd"
   xmlns:inkscape="http://www.inkscape.org/namespaces/inkscape"
   sodipodi:docname="studing.svg"
   inkscape:version="1.0 (4035a4fb49, 2020-05-01)"
   id="svg8"
   version="1.1"
   viewBox="0 0 132.29166 132.29167"
   height="500"
   width="500">
  <defs
     id="defs2" />
  <sodipodi:namedview
     inkscape:window-maximized="0"
     inkscape:window-y="0"
     inkscape:window-x="352"
     inkscape:window-height="1040"
     inkscape:window-width="1274"
     units="px"
     showgrid="false"
     inkscape:document-rotation="0"
     inkscape:current-layer="layer1"
     inkscape:document-units="px"
     inkscape:cy="-183.76232"
     inkscape:cx="-290.03651"
     inkscape:zoom="0.175"
     inkscape:pageshadow="2"
     inkscape:pageopacity="0.0"
     borderopacity="1.0"
     bordercolor="#666666"
     pagecolor="#ffffff"
     id="base" />
  <metadata
     id="metadata5">
    <rdf:RDF>
      <cc:Work
         rdf:about="">
        <dc:format>image/svg+xml</dc:format>
        <dc:type
           rdf:resource="http://purl.org/dc/dcmitype/StillImage" />
        <dc:title />
      </cc:Work>
    </rdf:RDF>
  </metadata>
  <g
     id="layer1"
     inkscape:groupmode="layer"
     inkscape:label="Layer 1">
    <path
       id="path845"
       d="m 29.771889,125.07156 c -0.93382,-3.0945 -6.81697,-21.69107 -11.41031,-36.06787 C 10.803079,65.34616 6.5383285,51.785769 6.6156385,51.655795 c 0.0213,-0.03589 0.3253,-0.227991 0.67547,-0.426899 l 0.63665,-0.361631 0.22812,-2.571423 c 0.28894,-3.256958 0.64219,-5.662763 1.04655,-7.127467 0.42452,-1.53769 1.1736305,-2.964607 1.8484005,-3.520843 0.29885,-0.246381 0.74343,-0.618568 0.98795,-0.827145 0.66213,-0.564765 3.22258,-3.484697 5.26327,-6.002201 5.35178,-6.602282 7.58522,-9.025089 10.29693,-11.169962 4.35979,-3.448455 9.76478,-5.263616 12.59174,-4.228724 2.10757,0.771547 4.67659,3.252422 7.44476,7.189356 l 0.67269,0.956714 0.16509,-0.455363 c 0.56289,-1.552569 1.8102,-4.331565 2.57253,-5.731561 2.44465,-4.489561 5.20742,-7.088388 8.76034,-8.240478 1.78818,-0.579857 3.28384,-0.695936 8.92541,-0.692771 7.09177,0.0039 9.65184,-0.26871 13.15054,-1.400788 l 1.329,-0.430024 18.081091,23.723691 c 9.9446,13.048035 18.14918,23.772824 18.2324,23.8329 0.0832,0.06002 0.20344,0.243216 0.26716,0.407001 0.0932,0.23955 0.0806,0.323228 -0.0645,0.427786 -0.23859,0.171948 -0.39718,1.630245 -0.39718,3.652226 v 1.570863 l 2.68539,3.805818 c 1.47697,2.09321 2.90505,4.10613 3.1735,4.47314 l 0.48812,0.6673 -0.0619,2.00191 c -0.034,1.10105 -0.0896,2.86987 -0.12345,3.93074 l -0.0616,1.92886 -0.80248,0.12699 c -1.04814,0.16577 -8.25024,1.70541 -10.78077,2.30454 -6.19105,1.46587 -6.7745,1.60815 -10.59576,2.58407 -0.39394,0.10054 -1.03858,0.26469 -1.43252,0.36462 -1.20141,0.30474 -6.376211,1.66734 -9.459621,2.49083 -1.60295,0.42812 -3.55909,0.94445 -4.34698,1.14741 -2.78426,0.71722 -2.73455,0.69132 -3.45375,1.79947 -3.49351,5.38282 -8.47182,8.48045 -12.46889,7.75844 -0.67006,-0.121 -1.59275,-0.39446 -2.05043,-0.60757 l -0.83214,-0.38751 -2.87267,1.9325 c -11.05242,7.43512 -17.34268,12.20639 -25.9456,19.6802 -2.53748,2.20445 -8.57335,7.64344 -9.7841,8.81659 l -0.64988,0.62968 z m 2.22346,-6.11519 c 0.29886,-0.3027 2.67871,-2.80061 5.28855,-5.55092 5.7792,-6.0902 8.5822,-8.94163 11.11142,-11.30332 9.9474,-9.28855 16.83747,-12.54187 23.26621,-10.98577 l 0.49397,0.11965 0.0179,-1.73801 c 0.0449,-4.35133 0.78496,-7.74355 2.64421,-12.12042 l 0.56526,-1.3307 -0.27997,-0.13509 c -0.73335,-0.35401 -3.62616,-0.73058 -5.60774,-0.72998 -2.50829,7.2e-4 -3.83338,0.19553 -5.98426,0.87968 -5.38544,1.71297 -10.29151,5.45679 -17.98068,13.72104 -6.23404,6.7003 -8.92796,9.38877 -11.81852,11.79459 l -1.09926,0.91492 -0.0657,1.07285 c -0.0361,0.59008 -0.19721,3.81834 -0.35789,7.17392 -0.1607,3.35557 -0.32079,6.51782 -0.35576,7.02718 l -0.0636,0.92614 -0.33165,-0.10382 c -0.1824,-0.0571 -0.33164,-0.0704 -0.33164,-0.0295 0,0.21535 0.23989,1.04773 0.28871,1.0018 0.0314,-0.0295 0.30159,-0.30136 0.60044,-0.60408 z m -0.97995,-9.85159 0.32742,-6.59097 -2.22569,-6.75505 c -1.22413,-3.71529 -4.12965,-12.63208 -6.45673,-19.81511 -6.41961,-19.815548 -11.40511,-35.085611 -11.5731,-35.447184 -0.099,-0.213015 -0.58199,0.984677 -0.88126,2.185148 -0.5246405,2.104501 -1.1619505,8.068684 -0.9546605,8.933886 0.0528,0.220348 3.6193805,11.210913 7.9257605,24.42349 4.30638,13.21257 9.07986,27.86049 10.60773,32.55093 2.73418,8.3937 2.77895,8.51688 2.84053,7.81697 0.0344,-0.3911 0.20991,-3.67706 0.39,-7.30211 z m 2.50574,-9.42406 c 2.23234,-1.8401 3.90934,-3.55693 9.68744,-9.91758 3.74705,-4.12482 5.1354,-5.55709 7.51237,-7.74999 5.64933,-5.21184 10.74111,-7.93962 16.34661,-8.75721 1.49644,-0.21827 6.0625,-0.1239 6.80474,0.14068 0.20412,0.0728 0.3192,0.0456 0.29639,-0.0699 -0.03,-0.15188 -21.6889,-40.587909 -24.24348,-45.261324 -1.33554,-2.443283 -4.78066,-7.047823 -6.61783,-8.844998 -2.46264,-2.409047 -4.18251,-2.965939 -7.0465,-2.281678 -4.98902,1.19196 -9.1786,4.120654 -14.09562,9.853392 -0.76072,0.886932 -2.42789,2.898549 -3.70481,4.470262 -2.77159,3.411441 -4.71895,5.663516 -5.82616,6.737834 -0.61866,0.600293 -0.80193,0.865761 -0.76678,1.110714 0.0254,0.176966 4.36906,13.53447 9.65259,29.683168 5.28354,16.14869 9.7908,29.94174 10.01614,30.65121 0.48673,1.53236 0.42102,1.52456 1.9849,0.23551 z M 83.450889,84.1845 c 3.41233,-5.51762 6.47569,-8.59748 9.816,-9.86887 0.47239,-0.17986 1.51336,-0.34585 2.45121,-0.39101 0.89656,-0.0432 2.20806,-0.20516 2.91445,-0.35997 3.876511,-0.84964 5.868431,-1.02987 13.831291,-1.25147 3.85794,-0.1073 7.06774,-0.23091 7.13289,-0.27454 0.083,-0.0556 0,-0.75345 -0.27583,-2.32931 -0.89115,-5.08541 -1.3563,-9.551488 -1.2448,-11.951524 l 0.0521,-1.121965 -1.74545,0.124667 c -0.96,0.0687 -3.43484,0.209464 -5.49966,0.31298 -4.40723,0.220966 -7.11047,0.465109 -9.63251,0.869988 -3.626411,0.582172 -9.501501,2.181346 -12.299971,3.347987 -5.27544,2.199257 -8.25837,5.937167 -11.16019,13.984817 -0.83494,2.31555 -1.96552,6.00098 -1.88724,6.15203 0.0348,0.0672 0.71743,-0.24866 1.51685,-0.70205 1.72928,-0.98072 2.59109,-1.16589 3.23109,-0.69422 0.82562,0.60851 1.37898,2.41814 1.50449,4.92011 0.0302,0.60295 0.0747,1.09627 0.0987,1.09627 0.0241,0 0.5625,-0.8388 1.19652,-1.864 z m -4.4319,-15.876 c 2.92401,-5.651179 6.50715,-8.785727 12.30273,-10.762531 3.39894,-1.159327 6.64664,-1.717628 15.510811,-2.666371 6.0548,-0.648057 10.63306,-1.203193 10.6802,-1.295033 0.0122,-0.02374 -7.72968,-10.210006 -17.20415,-22.636115 C 89.085019,16.22835 83.003079,8.361604 82.855019,8.372951 c -0.12499,0.0096 -0.82989,0.201089 -1.56645,0.425567 -3.02282,0.921185 -4.01295,1.018488 -11.89933,1.169362 -6.22452,0.11907 -7.71113,0.198792 -8.69395,0.466247 -4.15062,1.129473 -6.93261,3.784612 -9.63653,9.197115 -0.46407,0.928943 -1.08188,2.274615 -1.37289,2.99039 -0.517,1.271585 -0.52483,1.309294 -0.34177,1.646262 0.10305,0.189702 6.27062,11.466384 13.70571,25.059346 l 13.51835,24.71445 0.60657,-1.67056 c 0.33361,-0.91881 1.16353,-2.74698 1.84426,-4.06263 z"
       style="fill:#62b5e5;stroke-width:0.137244;fill-opacity:1" />
  </g>
</svg>
