<?xml version="1.0" encoding="UTF-8" standalone="no"?>
<svg
   xmlns:dc="http://purl.org/dc/elements/1.1/"
   xmlns:cc="http://creativecommons.org/ns#"
   xmlns:rdf="http://www.w3.org/1999/02/22-rdf-syntax-ns#"
   xmlns:svg="http://www.w3.org/2000/svg"
   xmlns="http://www.w3.org/2000/svg"
   xmlns:sodipodi="http://sodipodi.sourceforge.net/DTD/sodipodi-0.dtd"
   xmlns:inkscape="http://www.inkscape.org/namespaces/inkscape"
   width="500"
   height="500"
   viewBox="0 0 132.29166 132.29167"
   version="1.1"
   id="svg8"
   inkscape:version="1.0 (4035a4fb49, 2020-05-01)"
   sodipodi:docname="Wroking.svg">
  <defs
     id="defs2" />
  <sodipodi:namedview
     id="base"
     pagecolor="#ffffff"
     bordercolor="#666666"
     borderopacity="1.0"
     inkscape:pageopacity="0.0"
     inkscape:pageshadow="2"
     inkscape:zoom="0.98994949"
     inkscape:cx="239.5654"
     inkscape:cy="313.38343"
     inkscape:document-units="px"
     inkscape:current-layer="layer1"
     inkscape:document-rotation="0"
     showgrid="false"
     units="px"
     inkscape:window-width="1274"
     inkscape:window-height="1040"
     inkscape:window-x="304"
     inkscape:window-y="1"
     inkscape:window-maximized="0" />
  <metadata
     id="metadata5">
    <rdf:RDF>
      <cc:Work
         rdf:about="">
        <dc:format>image/svg+xml</dc:format>
        <dc:type
           rdf:resource="http://purl.org/dc/dcmitype/StillImage" />
        <dc:title />
      </cc:Work>
    </rdf:RDF>
  </metadata>
  <g
     inkscape:label="Layer 1"
     inkscape:groupmode="layer"
     id="layer1">
    <path
       id="path22"
       d="m 104.00675,79.111444 c 2.56001,0 7.60965,-1.321216 9.84335,-0.116143 2.51031,1.354012 4.7856,4.17176 6.88075,6.104506 0.77148,0.711904 1.53015,2.035581 2.71578,2.007715 2.05136,-0.04762 1.92512,-2.882605 2.11116,-4.297271 0.59528,-4.531039 -1.09704,-9.682985 -3.74441,-13.315705 -3.18925,-4.375939 -8.02332,-7.263226 -13.37712,-8.031838 -1.77722,-0.254971 -3.87853,-0.266067 -5.65993,-0.03428 -0.97154,0.126498 -2.231,0.730637 -3.199089,0.476899 C 98.0402,61.502406 96.303097,59.207912 95.147733,58.129341 89.213921,52.59075 83.609609,46.697811 77.675788,41.159218 74.960743,38.624795 70.618596,35.692382 68.728915,32.50549 c -0.925021,-1.559664 0.43631,-4.827929 0.31179,-6.656867 -0.319659,-4.704635 -2.018628,-9.280995 -5.188426,-12.822332 -3.890099,-4.3464432 -9.4949,-6.4136567 -15.21438,-6.4114619 -1.573706,5.918e-4 -3.984589,-0.042862 -5.381114,0.7829635 -2.407684,1.4240157 0.850219,4.0850844 1.935941,5.1254114 1.734152,1.661553 4.905188,3.61122 5.757623,5.927806 0.537447,1.460857 0.148388,3.634176 0.148388,5.17833 0,1.045677 0.409238,3.237689 -0.394473,4.043288 -0.800264,0.801656 -3.444188,0.624606 -4.527203,0.642606 -1.491514,0.0249 -3.912241,0.831739 -5.2721,0.02664 -3.152333,-1.866422 -10.571514,-13.396959 -11.848443,-4.465943 -0.140022,0.980603 -0.105323,1.970996 -0.105323,2.959046 0,1.43489 0.03666,2.7852 0.350669,4.19198 1.764912,7.903611 8.445596,14.576505 16.629113,15.493809 2.116567,0.237463 4.039712,0.273958 6.152096,-0.06682 0.994671,-0.160529 2.247483,-0.746173 3.199089,-0.214039 2.563703,1.433411 5.054803,4.647428 7.136425,6.733309 4.185149,4.193707 8.466766,8.310232 12.796365,12.351553 2.583141,2.410881 5.077692,4.941112 7.628596,7.385032 0.96268,0.922486 2.654999,2.137661 3.078018,3.442605 0.575831,1.775427 -0.483558,4.701919 -0.348948,6.657852 0.433353,6.305722 4.062592,12.538464 9.575115,15.698485 4.041191,2.316687 8.653787,3.302537 13.288527,2.690997 1.52203,-0.20096 4.1507,-0.0241 4.35002,-2.114976 0.13831,-1.448946 -1.22475,-2.538118 -2.13527,-3.451973 -2.05381,-2.061476 -4.93324,-3.931099 -6.49587,-6.411264 -1.47059,-2.334456 -0.26159,-7.466914 -0.14839,-10.110083 M 32.396367,25.602037 c 3.004191,1.403844 4.654676,5.952366 7.874682,6.796434 2.858756,0.749625 6.880504,-0.581453 9.843353,-0.631016 1.135923,-0.01899 2.716273,0.02294 3.584702,-0.847274 0.804695,-0.80634 0.831272,-2.280191 0.843822,-3.345447 0.0352,-2.956013 1.105901,-7.87143 0.06447,-10.603246 -1.041426,-2.731865 -4.773287,-4.502558 -6.461668,-6.90444 3.069157,0 5.871066,0.462795 8.612934,1.918843 2.056027,1.091912 3.849492,2.609706 5.227555,4.492423 3.261597,4.456248 4.363557,10.558046 2.384801,15.781575 -3.620636,9.558949 -15.576122,14.1361 -24.346056,8.458184 -2.113369,-1.368065 -3.822912,-3.110696 -5.151519,-5.252552 -1.868268,-3.011815 -2.47708,-6.371811 -2.47708,-9.863484 m 34.451729,10.110071 c 6.768783,6.782626 13.90251,13.191425 20.671041,19.973557 2.53048,2.535655 6.592337,5.099421 8.120766,8.383962 -3.535245,1.974178 -5.561491,4.949002 -7.874676,8.137372 h -0.24609 L 58.72733,44.342657 V 44.09607 l 8.120766,-8.383962 M 49.130067,117.57903 c 2.044218,-0.27617 4.037004,-1.04725 5.906011,-1.89749 0.826596,-0.37604 2.026743,-1.27805 2.953001,-1.21271 2.431807,0.17187 3.946201,4.44621 6.644263,3.71952 1.849326,-0.49836 7.06359,-5.45451 6.331496,-7.51376 -0.674272,-1.8965 -3.839401,-3.865 -3.733335,-5.91809 0.146414,-2.83328 2.813224,-5.582478 3.06177,-8.630539 1.920188,-0.08257 5.755162,-0.07372 7.346093,-1.197924 1.609634,-1.137504 0.775408,-5.895905 0.774673,-7.679217 -2.42e-4,-0.789325 0.118855,-1.742883 -0.394475,-2.409651 -1.575175,-2.045442 -5.430824,-0.459393 -7.377102,-1.788252 -0.735052,-0.501807 -0.849479,-1.673589 -1.093588,-2.45995 -0.618904,-1.992672 -1.654921,-3.731361 -2.408425,-5.649316 -0.761876,-1.939401 3.194659,-4.559391 3.707254,-6.433459 0.562541,-2.056532 -4.193268,-5.972091 -5.72219,-7.023291 -3.064728,-2.10758 -5.184,4.323662 -8.120766,3.246566 -1.843413,-0.675895 -3.524657,-1.69578 -5.413842,-2.303124 -0.799034,-0.256943 -1.961535,-0.372346 -2.454932,-1.139972 -1.203843,-1.87283 0.28841,-6.781392 -2.470436,-7.496988 -1.780662,-0.461857 -8.577743,-0.834204 -9.515322,0.922482 -1.077602,2.018809 0.269707,6.278109 -2.297685,7.26495 -1.820282,0.699568 -3.649669,1.149342 -5.409168,2.029905 -0.71192,0.356319 -1.625138,1.035916 -2.460838,0.817683 -2.204567,-0.576274 -4.314046,-4.931249 -6.890347,-3.463316 -1.90144,1.083257 -6.71703,5.180056 -5.675308,7.638282 0.746397,1.761373 4.229172,4.139709 3.423149,6.164675 -0.665189,1.671129 -1.595386,3.212545 -2.17639,4.931746 -0.289148,0.855411 -0.414405,2.179833 -1.111561,2.810357 -1.58943,1.437844 -4.8883555,0.379 -6.7496598,1.424778 -1.8318727,1.029254 -0.9988786,5.543276 -0.9987558,7.354463 4.92e-5,0.769352 -0.1393568,1.740655 0.2529251,2.438995 1.1595222,2.064183 5.2175175,0.998675 7.0967365,1.892065 0.815695,0.387881 0.956726,1.295316 1.194343,2.080206 0.617819,2.040756 2.352661,4.364836 2.59717,6.411256 0.311591,2.60791 -4.584814,4.35991 -3.609042,7.15103 0.719476,2.05801 5.638839,7.19073 7.971147,6.13015 1.669359,-0.75899 3.934068,-4.1291 5.906012,-3.40832 1.839968,0.67244 3.534255,1.7409 5.413844,2.36896 0.805924,0.26928 1.950706,0.37284 2.457638,1.14268 1.254782,1.90489 -0.146419,5.68828 1.781893,7.18013 0.665411,0.51438 1.617264,0.39503 2.404731,0.39528 1.787799,7.4e-4 6.265787,0.81053 7.446989,-0.77626 1.16816,-1.56928 1.260687,-5.19633 1.412029,-7.11453 M 44.700558,56.918601 c 0.147158,1.868144 0.0027,5.667558 1.308428,7.094804 1.457308,1.592955 5.096642,1.786528 7.058422,2.714681 1.330575,0.629536 3.440743,2.555627 4.921671,2.412111 2.867615,-0.277899 4.453877,-5.469548 7.381287,-2.600018 2.942914,2.885074 -2.047666,4.463975 -2.426878,7.392936 -0.208189,1.607502 1.683213,3.763654 2.364618,5.178329 0.910512,1.891078 1.032566,5.065141 2.384801,6.602372 1.370195,1.557688 5.327957,1.494807 7.275955,1.535004 v 4.438568 c -1.855464,0.07987 -5.669771,-0.0028 -7.080322,1.310359 -1.49889,1.395444 -2.017149,5.382515 -2.867615,7.320193 -0.580017,1.32146 -2.364125,3.20045 -2.197036,4.68515 0.207696,1.84817 2.89149,4.24154 4.024207,5.6715 v 0.24659 l -2.953006,2.95904 h -0.24608 c -1.459027,-1.17843 -3.745146,-3.77105 -5.659931,-3.99914 -1.547863,-0.18421 -3.790178,1.78972 -5.167755,2.456 -1.901982,0.91953 -5.043242,0.99375 -6.588156,2.38894 -1.529165,1.38089 -1.379546,5.34946 -1.53261,7.29158 l -4.035037,-0.25349 -1.456815,-6.84131 -3.613249,-1.39446 -5.659927,-2.43677 -2.953006,-1.19792 -5.413844,3.98657 h -0.246084 l -2.953005,-2.95904 v -0.24659 c 1.164911,-1.4482 3.779429,-3.76168 3.962416,-5.6715 0.153679,-1.60429 -1.740108,-3.76168 -2.422301,-5.17832 -0.919246,-1.908831 -0.992604,-5.048385 -2.384134,-6.601642 -1.375362,-1.535246 -5.336893,-1.452393 -7.276748,-1.53574 V 87.24882 c 1.770721,-0.03653 5.738134,0.0247 7.030665,-1.310368 1.443674,-1.491108 1.74936,-5.133446 2.642743,-7.073601 0.627833,-1.363379 2.486135,-3.37553 2.280827,-4.931736 -0.262276,-1.987985 -4.623299,-4.370515 -3.249585,-6.411269 0.242023,-0.359522 0.580856,-0.684523 0.893751,-0.981415 3.15322,-2.991103 4.706403,3.381942 7.87355,2.523577 1.392342,-0.377528 2.631128,-1.582601 3.937341,-2.203012 2.059968,-0.978703 5.775341,-1.161922 7.313857,-2.826878 1.546391,-1.673093 0.05242,-5.569662 1.693548,-6.862026 0.843823,-0.664798 3.005915,-0.253491 4.035037,-0.253491 m 77.270312,24.165534 c -2.36733,-1.670868 -4.41105,-5.21655 -7.13643,-6.227304 -2.71209,-1.005833 -7.67683,0.436699 -10.58161,0.565425 -1.06504,0.04734 -2.55385,0.1477 -3.26257,1.061556 -0.60783,0.7839 -0.49291,2.172927 -0.60463,3.1208 -0.26798,2.277487 0.0202,4.615869 -0.0797,6.904446 -0.0502,1.146628 -0.430646,2.31718 -0.0758,3.452214 1.00501,3.216487 5.3196,5.184998 7.22183,7.890798 -17.009561,2.15418 -25.299881,-21.922098 -10.335522,-30.607386 2.277503,-1.321953 4.536802,-1.982318 7.136422,-2.230133 2.48127,-0.236726 5.04497,0.154607 7.38251,1.044045 2.70594,1.029254 5.1156,2.886798 6.88666,5.162057 2.15496,2.768679 3.37652,6.356524 3.44886,9.863482 M 40.763216,72.065216 c -2.995578,0.408591 -5.898875,1.336007 -8.36685,3.140037 -13.842115,10.118211 -5.825419,33.813757 11.812023,31.700257 2.923476,-0.3504 5.673216,-1.22283 8.120766,-2.89591 14.315189,-9.785322 6.290146,-34.379925 -11.565938,-31.944384 m -0.246083,3.665274 c 2.127148,-0.277665 4.364788,-0.07745 6.398178,0.587364 13.279909,4.342397 11.96829,25.036246 -2.214754,26.887866 -2.427371,0.31687 -5.096642,0.11344 -7.382514,-0.78291 C 24.49757,97.396375 26.822447,77.518238 40.517134,75.73049 Z"
       style="fill:#62b5e5;stroke:none;stroke-width:0.246335;fill-opacity:1" />
  </g>
</svg>
