<?xml version="1.0" encoding="UTF-8" standalone="no"?>
<svg
   xmlns:dc="http://purl.org/dc/elements/1.1/"
   xmlns:cc="http://creativecommons.org/ns#"
   xmlns:rdf="http://www.w3.org/1999/02/22-rdf-syntax-ns#"
   xmlns:svg="http://www.w3.org/2000/svg"
   xmlns="http://www.w3.org/2000/svg"
   xmlns:xlink="http://www.w3.org/1999/xlink"
   xmlns:sodipodi="http://sodipodi.sourceforge.net/DTD/sodipodi-0.dtd"
   xmlns:inkscape="http://www.inkscape.org/namespaces/inkscape"
   aria-hidden="true"
   focusable="false"
   data-prefix="fab"
   data-icon="instagram-square"
   class="svg-inline--fa fa-instagram-square fa-w-14"
   role="img"
   viewBox="0 0 448 448"
   version="1.1"
   id="svg4"
   sodipodi:docname="instagram.svg"
   width="448"
   height="448"
   inkscape:version="1.0 (4035a4fb49, 2020-05-01)">
  <metadata
     id="metadata10">
    <rdf:RDF>
      <cc:Work
         rdf:about="">
        <dc:format>image/svg+xml</dc:format>
        <dc:type
           rdf:resource="http://purl.org/dc/dcmitype/StillImage" />
        <dc:title />
      </cc:Work>
    </rdf:RDF>
  </metadata>
  <defs
     id="defs8">
    <linearGradient
       inkscape:collect="always"
       id="linearGradient2303">
      <stop
         style="stop-color:#feda77;stop-opacity:1"
         offset="0"
         id="stop2299" />
      <stop
         id="stop2309"
         offset="0.17352016"
         style="stop-color:#f58529;stop-opacity:1" />
      <stop
         style="stop-color:#dd2a7b;stop-opacity:1"
         offset="0.57223499"
         id="stop2313" />
      <stop
         style="stop-color:#8134af;stop-opacity:1"
         offset="0.85186797"
         id="stop2311" />
      <stop
         style="stop-color:#515bd4;stop-opacity:1"
         offset="1"
         id="stop2301" />
    </linearGradient>
    <radialGradient
       inkscape:collect="always"
       xlink:href="#linearGradient2303"
       id="radialGradient2307"
       cx="63.466125"
       cy="423.68207"
       fx="63.466125"
       fy="423.68207"
       r="224"
       gradientUnits="userSpaceOnUse"
       gradientTransform="matrix(3.7696573,-0.5256682,0.30160832,2.1628857,-318.91863,-449.39495)" />
  </defs>
  <sodipodi:namedview
     inkscape:document-rotation="0"
     pagecolor="#ffffff"
     bordercolor="#666666"
     borderopacity="1"
     objecttolerance="10"
     gridtolerance="10"
     guidetolerance="10"
     inkscape:pageopacity="0"
     inkscape:pageshadow="2"
     inkscape:window-width="1920"
     inkscape:window-height="1017"
     id="namedview6"
     showgrid="false"
     inkscape:zoom="0.83007813"
     inkscape:cx="193.12109"
     inkscape:cy="-28.920375"
     inkscape:window-x="1912"
     inkscape:window-y="-8"
     inkscape:window-maximized="1"
     inkscape:current-layer="svg4"
     inkscape:snap-page="false" />
  <path
     fill="currentColor"
     d="M 224,170.66 A 53.34,53.34 0 1 0 277.36,224 53.38,53.38 0 0 0 224,170.66 Z m 124.71,-41 A 54,54 0 0 0 318.3,99.25 c -21,-8.29 -71,-6.43 -94.3,-6.43 -23.3,0 -73.25,-1.93 -94.31,6.43 a 54,54 0 0 0 -30.41,30.41 c -8.28,21 -6.43,71.05 -6.43,94.33 0,23.28 -1.85,73.27 6.47,94.34 a 54,54 0 0 0 30.41,30.41 c 21,8.29 71,6.43 94.31,6.43 23.31,0 73.24,1.93 94.3,-6.43 a 54,54 0 0 0 30.41,-30.41 c 8.35,-21 6.43,-71.05 6.43,-94.33 0,-23.28 1.92,-73.26 -6.43,-94.33 z M 224,306 a 82,82 0 1 1 82,-82 81.9,81.9 0 0 1 -82,82 z m 85.38,-148.3 a 19.14,19.14 0 1 1 19.13,-19.14 19.1,19.1 0 0 1 -19.09,19.18 z M 400,0 H 48 A 48,48 0 0 0 0,48 v 352 a 48,48 0 0 0 48,48 h 352 a 48,48 0 0 0 48,-48 V 48 A 48,48 0 0 0 400,0 Z m -17.12,290 c -1.29,25.63 -7.14,48.34 -25.85,67 -18.71,18.66 -41.4,24.63 -67,25.85 -26.41,1.49 -105.59,1.49 -132,0 C 132.4,381.56 109.77,375.7 91.03,357 72.29,338.3 66.4,315.58 65.18,290 c -1.49,-26.42 -1.49,-105.61 0,-132 1.29,-25.63 7.07,-48.34 25.85,-67 18.78,-18.66 41.47,-24.56 67,-25.78 26.41,-1.49 105.59,-1.49 132,0 25.63,1.29 48.33,7.15 67,25.85 18.67,18.7 24.63,41.42 25.85,67.05 1.49,26.32 1.49,105.44 0,131.88 z"
     id="path2"
     style="fill:url(#radialGradient2307);fill-opacity:1" />
</svg>
